<?xml version="1.0" encoding="utf-8"?>
<!-- Generator: Adobe Illustrator 28.0.0, SVG Export Plug-In . SVG Version: 6.00 Build 0)  -->
<svg version="1.1" id="Layer_1" xmlns="http://www.w3.org/2000/svg" xmlns:xlink="http://www.w3.org/1999/xlink" x="0px" y="0px"
	 viewBox="0 0 64 64" style="enable-background:new 0 0 64 64;" xml:space="preserve">
<style type="text/css">
	.st0{fill:#59B6F8;}
	.st1{fill:#232F3E;}
</style>
<path class="st0" d="M50.4069,15.4266l-3.2067,0.7267c-6.98,1.5933-13.4267,5.1067-18.38,10.06L28.7869,26.24l-0.6067-0.6067
	c-2.3333-1.86-7.0733-1.02-10.4667,2.3733c-0.3666,0.3667-0.7,0.7534-1.0133,1.14l2.4467,2.4L17.8135,32.88
	c1.4067-0.2,2.6667-0.02,3.5267,0.8466l1.8067,1.8067L20.3135,38.38c-0.52,0.52-0.52,1.3666,0,1.8866l9.4267,9.4267
	c0.52,0.52,1.3667,0.52,1.8867,0l2.8333-2.8333l1.82,1.82c1.2467,1.2466,1.0933,3.3,0.38,5.46c-0.08,0.24-0.02,0.5066,0.16,0.6866
	l0.2067,0.2067c0.1866,0.1867,0.4666,0.2533,0.7133,0.1533c1.4533-0.5866,2.9333-1.56,4.2533-2.8933
	c3.4-3.3933,4.2334-8.1333,2.3734-10.4667L43.7602,41.22l0.0333-0.0334c4.9467-4.9466,8.46-11.3933,10.0534-18.38l0.7333-3.2
	c0.5733-2.5333-1.6467-4.7533-4.1733-4.1733V15.4266z M40.5535,25.22c-1.04,1.04-2.7266,1.04-3.7733,0
	c-1.04-1.04-1.04-2.7267,0-3.7734c1.04-1.04,2.7267-1.04,3.7733,0C41.5935,22.4866,41.5935,24.1733,40.5535,25.22z"/>
<path class="st1" d="M50.5929,11.4067c-1.1734-1.1734-2.8534-1.6534-4.4867-1.28L42.8995,10.86
	c-6.8866,1.5667-13.1333,4.8667-18.1466,9.56c-3.0467-2.1467-8.34-1.0067-11.9934,2.6467c-1.54,1.54-2.7,3.32-3.3533,5.1533
	c-0.1733,0.4867-0.0533,1.0267,0.3133,1.3933l0.8067,0.8067c0.3667,0.3667,0.9067,0.4867,1.3933,0.3133
	c1.52-0.54,3.5267-0.9933,4.46-0.0666l0.8734,0.8733l-2.8334,2.8333c-0.52,0.52-0.52,1.3667,0,1.8867l11.3134,11.3133
	c0.2533,0.2534,0.5866,0.3934,0.94,0.3934c0.3533,0,0.6933-0.14,0.94-0.3934l2.8333-2.8333l0.8733,0.8733
	c0.9334,0.9334,0.48,2.94-0.0666,4.46c-0.1734,0.4867-0.0534,1.0267,0.3133,1.3934l0.8067,0.8066
	c0.2533,0.2534,0.5933,0.3934,0.94,0.3934c0.1533,0,0.3066-0.0267,0.4466-0.08c1.8334-0.66,3.62-1.82,5.1534-3.3534
	c3.6533-3.6533,4.7933-8.9466,2.6466-11.9933c4.6934-5.0133,7.9934-11.26,9.56-18.1467l0.7267-3.2066
	c0.3733-1.64-0.1067-3.3134-1.28-4.4867L50.5929,11.4067z M26.6795,44.7467L17.2529,35.32l1.8866-1.8867l9.4267,9.4267
	L26.6795,44.7467z M12.5262,27.7667c0.5333-0.9934,1.2533-1.9467,2.1267-2.82c2.7266-2.7267,6.24-3.4734,8.14-2.6L17.1595,27.98
	C15.9595,27.38,14.4062,27.3067,12.5262,27.7667z M37.0462,47.3467c-0.8667,0.8733-1.8267,1.5866-2.82,2.1266
	c0.46-1.88,0.3867-3.4266-0.2133-4.6333l5.6333-5.6333C40.5195,41.1067,39.7729,44.62,37.0462,47.3467z M49.2729,15.3
	l-0.7267,3.2067c-1.5267,6.7066-4.9733,13.0066-9.7,17.7333l-6.54,6.54l-5.6-5.6l4.9067-4.9067c0.52-0.52,0.52-1.3666,0-1.8866
	s-1.3667-0.52-1.8867,0l-4.9067,4.9066l-5.6-5.6l6.54-6.54c4.7267-4.7266,11.0267-8.1733,17.7334-9.7l3.2066-0.7333
	c0.7467-0.1733,1.48,0.0333,2.0134,0.5667c0.5266,0.5266,0.7333,1.26,0.5666,2.0133H49.2729z"/>
<path class="st1" d="M35.8393,20.5067c-0.7533,0.7534-1.1733,1.76-1.1733,2.8267s0.4133,2.0733,1.1733,2.8267
	c0.78,0.78,1.8067,1.1666,2.8267,1.1666s2.0467-0.3866,2.8267-1.1666c1.56-1.56,1.56-4.1,0-5.66c-1.56-1.56-4.1-1.56-5.66,0
	L35.8393,20.5067z M39.6127,24.2801c-0.52,0.52-1.3667,0.52-1.8867,0c-0.2533-0.2534-0.3933-0.5867-0.3933-0.94
	c0-0.3534,0.14-0.6934,0.3933-0.94c0.26-0.26,0.6-0.3867,0.9467-0.3867c0.3466,0,0.68,0.1267,0.94,0.3867
	c0.52,0.52,0.52,1.3666,0,1.8866V24.2801z"/>
<path class="st1" d="M18.2728,45.6067c0.52-0.52,0.52-1.3666,0-1.8866s-1.3667-0.52-1.8867,0l-4,4c-0.52,0.52-0.52,1.3666,0,1.8866
	c0.26,0.26,0.6,0.3934,0.94,0.3934c0.34,0,0.68-0.1334,0.94-0.3934l4-4H18.2728z"/>
<path class="st1" d="M19.0596,48.3933L14.3929,53.06c-0.52,0.52-0.52,1.3666,0,1.8866c0.26,0.26,0.6,0.3934,0.94,0.3934
	s0.68-0.1334,0.94-0.3934l4.6667-4.6666c0.52-0.52,0.52-1.3667,0-1.8867s-1.3667-0.52-1.8867,0H19.0596z"/>
<path class="st1" d="M13.6064,41.06c-0.52-0.52-1.3666-0.52-1.8866,0l-4.6667,4.6667c-0.52,0.52-0.52,1.3667,0,1.8867
	c0.26,0.26,0.6,0.3933,0.94,0.3933c0.34,0,0.68-0.1333,0.94-0.3933l4.6667-4.6667c0.52-0.52,0.52-1.3667,0-1.8867H13.6064z"/>
</svg>
